<?xml version="1.0" encoding="UTF-8" standalone="no"?>
<!DOCTYPE svg PUBLIC "-//W3C//DTD SVG 1.1//EN"
 "http://www.w3.org/Graphics/SVG/1.1/DTD/svg11.dtd">
<!-- Generated by graphviz version 2.42.4 (0)
 -->
<!-- Pages: 1 -->
<svg width="1997pt" height="260pt"
 viewBox="0.00 0.00 1996.50 260.00" xmlns="http://www.w3.org/2000/svg" xmlns:xlink="http://www.w3.org/1999/xlink">
<g id="graph0" class="graph" transform="scale(1 1) rotate(0) translate(4 256)">
<polygon fill="white" stroke="transparent" points="-4,4 -4,-256 1992.5,-256 1992.5,4 -4,4"/>
<!-- n6 -->
<g id="node1" class="node">
<title>n6</title>
<ellipse fill="none" stroke="black" cx="1136" cy="-90" rx="46.29" ry="18"/>
<text text-anchor="middle" x="1136" y="-86.3" font-family="Times,serif" font-size="14.00">binutils</text>
</g>
<!-- n4 -->
<g id="node14" class="node">
<title>n4</title>
<ellipse fill="none" stroke="black" cx="1227" cy="-18" rx="53.09" ry="18"/>
<text text-anchor="middle" x="1227" y="-14.3" font-family="Times,serif" font-size="14.00">toolchain</text>
</g>
<!-- n6&#45;&gt;n4 -->
<g id="edge1" class="edge">
<title>n6&#45;&gt;n4</title>
<path fill="none" stroke="black" d="M1156.2,-73.46C1168.6,-63.93 1184.68,-51.56 1198.38,-41.02"/>
<polygon fill="black" stroke="black" points="1200.75,-43.61 1206.55,-34.73 1196.49,-38.06 1200.75,-43.61"/>
</g>
<!-- n2 -->
<g id="node2" class="node">
<title>n2</title>
<ellipse fill="none" stroke="black" cx="1136" cy="-162" rx="108.58" ry="18"/>
<text text-anchor="middle" x="1136" y="-158.3" font-family="Times,serif" font-size="14.00">bootstrap&#45;c&#45;toolchain</text>
</g>
<!-- n2&#45;&gt;n6 -->
<g id="edge5" class="edge">
<title>n2&#45;&gt;n6</title>
<path fill="none" stroke="black" d="M1136,-143.7C1136,-135.98 1136,-126.71 1136,-118.11"/>
<polygon fill="black" stroke="black" points="1139.5,-118.1 1136,-108.1 1132.5,-118.1 1139.5,-118.1"/>
</g>
<!-- n7 -->
<g id="node3" class="node">
<title>n7</title>
<ellipse fill="none" stroke="black" cx="1227" cy="-90" rx="27" ry="18"/>
<text text-anchor="middle" x="1227" y="-86.3" font-family="Times,serif" font-size="14.00">gcc</text>
</g>
<!-- n2&#45;&gt;n7 -->
<g id="edge6" class="edge">
<title>n2&#45;&gt;n7</title>
<path fill="none" stroke="black" d="M1158.03,-144.05C1171.27,-133.87 1188.17,-120.87 1201.92,-110.29"/>
<polygon fill="black" stroke="black" points="1204.22,-112.94 1210.02,-104.06 1199.96,-107.39 1204.22,-112.94"/>
</g>
<!-- n1 -->
<g id="node12" class="node">
<title>n1</title>
<ellipse fill="none" stroke="black" cx="1345" cy="-90" rx="73.39" ry="18"/>
<text text-anchor="middle" x="1345" y="-86.3" font-family="Times,serif" font-size="14.00">linux&#45;headers</text>
</g>
<!-- n2&#45;&gt;n1 -->
<g id="edge2" class="edge">
<title>n2&#45;&gt;n1</title>
<path fill="none" stroke="black" d="M1181.87,-145.64C1214.89,-134.58 1259.48,-119.64 1293.69,-108.19"/>
<polygon fill="black" stroke="black" points="1295.12,-111.4 1303.5,-104.9 1292.9,-104.76 1295.12,-111.4"/>
</g>
<!-- n3 -->
<g id="node13" class="node">
<title>n3</title>
<ellipse fill="none" stroke="black" cx="1036" cy="-90" rx="36" ry="18"/>
<text text-anchor="middle" x="1036" y="-86.3" font-family="Times,serif" font-size="14.00">make</text>
</g>
<!-- n2&#45;&gt;n3 -->
<g id="edge3" class="edge">
<title>n2&#45;&gt;n3</title>
<path fill="none" stroke="black" d="M1112.3,-144.41C1098.01,-134.41 1079.71,-121.6 1064.62,-111.03"/>
<polygon fill="black" stroke="black" points="1066.35,-107.97 1056.15,-105.11 1062.34,-113.71 1066.35,-107.97"/>
</g>
<!-- n8 -->
<g id="node15" class="node">
<title>n8</title>
<ellipse fill="none" stroke="black" cx="904" cy="-90" rx="78.79" ry="18"/>
<text text-anchor="middle" x="904" y="-86.3" font-family="Times,serif" font-size="14.00">toolchain&#45;musl</text>
</g>
<!-- n2&#45;&gt;n8 -->
<g id="edge4" class="edge">
<title>n2&#45;&gt;n8</title>
<path fill="none" stroke="black" d="M1086.23,-145.98C1049.07,-134.77 998.29,-119.45 959.76,-107.83"/>
<polygon fill="black" stroke="black" points="960.33,-104.34 949.75,-104.8 958.31,-111.04 960.33,-104.34"/>
</g>
<!-- n7&#45;&gt;n4 -->
<g id="edge7" class="edge">
<title>n7&#45;&gt;n4</title>
<path fill="none" stroke="black" d="M1227,-71.7C1227,-63.98 1227,-54.71 1227,-46.11"/>
<polygon fill="black" stroke="black" points="1230.5,-46.1 1227,-36.1 1223.5,-46.1 1230.5,-46.1"/>
</g>
<!-- n11 -->
<g id="node4" class="node">
<title>n11</title>
<polygon fill="lemonchiffon" stroke="black" points="338,-252 0,-252 0,-216 338,-216 338,-252"/>
<text text-anchor="middle" x="169" y="-230.3" font-family="Times,serif" font-size="14.00">ghcr.io/siderolabs/stagex/core&#45;binutils:2.43.1</text>
</g>
<!-- n11&#45;&gt;n2 -->
<g id="edge8" class="edge">
<title>n11&#45;&gt;n2</title>
<path fill="none" stroke="black" d="M338.1,-216.68C341.09,-216.45 344.06,-216.22 347,-216 644.82,-193.8 720.79,-209.32 1018,-180 1028.49,-178.97 1039.47,-177.67 1050.34,-176.26"/>
<polygon fill="black" stroke="black" points="1050.82,-179.73 1060.27,-174.93 1049.89,-172.79 1050.82,-179.73"/>
</g>
<!-- n5 -->
<g id="node5" class="node">
<title>n5</title>
<polygon fill="lemonchiffon" stroke="black" points="1669.5,-252 1326.5,-252 1326.5,-216 1669.5,-216 1669.5,-252"/>
<text text-anchor="middle" x="1498" y="-230.3" font-family="Times,serif" font-size="14.00">ghcr.io/siderolabs/stagex/core&#45;busybox:1.36.1</text>
</g>
<!-- n5&#45;&gt;n2 -->
<g id="edge10" class="edge">
<title>n5&#45;&gt;n2</title>
<path fill="none" stroke="black" d="M1409.91,-215.97C1349.99,-204.38 1271.43,-189.19 1213.82,-178.05"/>
<polygon fill="black" stroke="black" points="1214.16,-174.55 1203.67,-176.09 1212.83,-181.42 1214.16,-174.55"/>
</g>
<!-- n9 -->
<g id="node11" class="node">
<title>n9</title>
<ellipse fill="none" stroke="black" cx="1516" cy="-162" rx="42.49" ry="18"/>
<text text-anchor="middle" x="1516" y="-158.3" font-family="Times,serif" font-size="14.00">golang</text>
</g>
<!-- n5&#45;&gt;n9 -->
<g id="edge11" class="edge">
<title>n5&#45;&gt;n9</title>
<path fill="none" stroke="black" d="M1502.45,-215.7C1504.45,-207.9 1506.87,-198.51 1509.1,-189.83"/>
<polygon fill="black" stroke="black" points="1512.5,-190.66 1511.6,-180.1 1505.72,-188.92 1512.5,-190.66"/>
</g>
<!-- n5&#45;&gt;n4 -->
<g id="edge9" class="edge">
<title>n5&#45;&gt;n4</title>
<path fill="none" stroke="black" d="M1486,-215.88C1479.25,-205.76 1471,-192.51 1465,-180 1442.98,-134.13 1464.38,-106.53 1427,-72 1390.11,-37.93 1333.87,-25.26 1290.42,-20.79"/>
<polygon fill="black" stroke="black" points="1290.5,-17.28 1280.23,-19.86 1289.87,-24.25 1290.5,-17.28"/>
</g>
<!-- n10 -->
<g id="node6" class="node">
<title>n10</title>
<polygon fill="lemonchiffon" stroke="black" points="1009.5,-180 684.5,-180 684.5,-144 1009.5,-144 1009.5,-180"/>
<text text-anchor="middle" x="847" y="-158.3" font-family="Times,serif" font-size="14.00">ghcr.io/siderolabs/stagex/core&#45;diffutils:3.10</text>
</g>
<!-- n10&#45;&gt;n8 -->
<g id="edge12" class="edge">
<title>n10&#45;&gt;n8</title>
<path fill="none" stroke="black" d="M861.09,-143.7C867.92,-135.3 876.26,-125.07 883.76,-115.86"/>
<polygon fill="black" stroke="black" points="886.47,-118.07 890.07,-108.1 881.04,-113.65 886.47,-118.07"/>
</g>
<!-- n12 -->
<g id="node7" class="node">
<title>n12</title>
<polygon fill="lemonchiffon" stroke="black" points="664,-252 356,-252 356,-216 664,-216 664,-252"/>
<text text-anchor="middle" x="510" y="-230.3" font-family="Times,serif" font-size="14.00">ghcr.io/siderolabs/stagex/core&#45;gcc:13.1.0</text>
</g>
<!-- n12&#45;&gt;n2 -->
<g id="edge13" class="edge">
<title>n12&#45;&gt;n2</title>
<path fill="none" stroke="black" d="M664.26,-216.91C813.53,-201.34 1017.44,-180.07 1018,-180 1027.78,-178.79 1038.01,-177.43 1048.18,-176.04"/>
<polygon fill="black" stroke="black" points="1048.88,-179.48 1058.3,-174.63 1047.92,-172.54 1048.88,-179.48"/>
</g>
<!-- n15 -->
<g id="node8" class="node">
<title>n15</title>
<polygon fill="lemonchiffon" stroke="black" points="1988.5,-252 1687.5,-252 1687.5,-216 1988.5,-216 1988.5,-252"/>
<text text-anchor="middle" x="1838" y="-230.3" font-family="Times,serif" font-size="14.00">ghcr.io/siderolabs/stagex/core&#45;go:1.24.4</text>
</g>
<!-- n15&#45;&gt;n9 -->
<g id="edge14" class="edge">
<title>n15&#45;&gt;n9</title>
<path fill="none" stroke="black" d="M1759.64,-215.97C1698.04,-202.57 1614.28,-184.37 1562.75,-173.16"/>
<polygon fill="black" stroke="black" points="1563.4,-169.72 1552.88,-171.02 1561.91,-176.56 1563.4,-169.72"/>
</g>
<!-- n13 -->
<g id="node9" class="node">
<title>n13</title>
<polygon fill="lemonchiffon" stroke="black" points="981.5,-252 682.5,-252 682.5,-216 981.5,-216 981.5,-252"/>
<text text-anchor="middle" x="832" y="-230.3" font-family="Times,serif" font-size="14.00">ghcr.io/siderolabs/stagex/core&#45;make:4.4</text>
</g>
<!-- n13&#45;&gt;n2 -->
<g id="edge15" class="edge">
<title>n13&#45;&gt;n2</title>
<path fill="none" stroke="black" d="M905.98,-215.97C954.38,-204.82 1017.27,-190.34 1065.05,-179.34"/>
<polygon fill="black" stroke="black" points="1066.05,-182.7 1075.01,-177.04 1064.48,-175.88 1066.05,-182.7"/>
</g>
<!-- n14 -->
<g id="node10" class="node">
<title>n14</title>
<polygon fill="lemonchiffon" stroke="black" points="1308.5,-252 999.5,-252 999.5,-216 1308.5,-216 1308.5,-252"/>
<text text-anchor="middle" x="1154" y="-230.3" font-family="Times,serif" font-size="14.00">ghcr.io/siderolabs/stagex/core&#45;musl:1.2.5</text>
</g>
<!-- n14&#45;&gt;n2 -->
<g id="edge16" class="edge">
<title>n14&#45;&gt;n2</title>
<path fill="none" stroke="black" d="M1149.55,-215.7C1147.55,-207.9 1145.13,-198.51 1142.9,-189.83"/>
<polygon fill="black" stroke="black" points="1146.28,-188.92 1140.4,-180.1 1139.5,-190.66 1146.28,-188.92"/>
</g>
<!-- n9&#45;&gt;n4 -->
<g id="edge17" class="edge">
<title>n9&#45;&gt;n4</title>
<path fill="none" stroke="black" d="M1510,-144.05C1501.9,-123.69 1485.47,-90.05 1460,-72 1410.12,-36.66 1340.47,-24.44 1290.33,-20.44"/>
<polygon fill="black" stroke="black" points="1290.48,-16.94 1280.26,-19.72 1289.99,-23.92 1290.48,-16.94"/>
</g>
<!-- n1&#45;&gt;n4 -->
<g id="edge18" class="edge">
<title>n1&#45;&gt;n4</title>
<path fill="none" stroke="black" d="M1318.22,-73.12C1301.43,-63.15 1279.62,-50.21 1261.53,-39.48"/>
<polygon fill="black" stroke="black" points="1262.84,-36.19 1252.46,-34.1 1259.27,-42.21 1262.84,-36.19"/>
</g>
<!-- n3&#45;&gt;n4 -->
<g id="edge19" class="edge">
<title>n3&#45;&gt;n4</title>
<path fill="none" stroke="black" d="M1063.58,-78.51C1069.33,-76.35 1075.36,-74.09 1081,-72 1114.96,-59.42 1153.48,-45.45 1182.42,-35.01"/>
<polygon fill="black" stroke="black" points="1183.63,-38.3 1191.85,-31.62 1181.25,-31.71 1183.63,-38.3"/>
</g>
<!-- n8&#45;&gt;n4 -->
<g id="edge20" class="edge">
<title>n8&#45;&gt;n4</title>
<path fill="none" stroke="black" d="M959.16,-77.05C1019.11,-64.05 1114.27,-43.43 1173.55,-30.58"/>
<polygon fill="black" stroke="black" points="1174.43,-33.97 1183.46,-28.44 1172.95,-27.13 1174.43,-33.97"/>
</g>
</g>
</svg>
